<svg width="20" height="25" viewBox="0 0 20 25" fill="none" xmlns="http://www.w3.org/2000/svg">
<path d="M10 1.44092C10.2313 1.68292 10.5119 1.97937 10.8281 2.32178C11.7544 3.32462 12.987 4.71388 14.2168 6.26514C15.4496 7.82018 16.6627 9.51728 17.5635 11.1362C18.4813 12.7859 18.9999 14.2258 19 15.3013C19 20.0815 14.9989 24.0073 10 24.0073C5.00109 24.0073 1 20.0815 1 15.3013C1.00006 14.2258 1.51873 12.7859 2.43652 11.1362C3.33725 9.51728 4.5504 7.82018 5.7832 6.26514C7.013 4.71388 8.24565 3.32462 9.17188 2.32178C9.48812 1.97937 9.76868 1.68292 10 1.44092Z" fill="#CCE5D8" stroke="#007C3C" stroke-width="2"/>
<path d="M10.1816 10.7085C10.7333 11.3456 11.4663 12.228 12.1973 13.2114C12.9309 14.1985 13.6472 15.2682 14.1758 16.2817C14.7188 17.323 15 18.1863 15 18.7954C15 21.7068 12.729 24.0073 10 24.0073C7.27099 24.0073 5 21.7068 5 18.7954C5.00005 18.1863 5.28116 17.323 5.82422 16.2817C6.35284 15.2682 7.06911 14.1985 7.80273 13.2114C8.53366 12.228 9.26669 11.3456 9.81836 10.7085C9.88082 10.6364 9.94259 10.5689 10 10.5034C10.0574 10.5689 10.1192 10.6364 10.1816 10.7085Z" fill="white" stroke="#007C3C" stroke-width="2"/>
</svg>
