<svg width="161" height="44" viewBox="0 0 161 44" fill="none" xmlns="http://www.w3.org/2000/svg">
<path d="M157.048 4.73523C155.378 4.73523 154.019 6.08779 154.019 7.76405C154.019 11.8333 150.297 15.3997 146.06 15.3997C141.823 15.3997 138.101 11.8333 138.101 7.76405C138.101 6.09358 136.748 4.73523 135.072 4.73523C133.396 4.73523 132.043 6.08779 132.043 7.76405C132.043 15.1858 138.459 21.4573 146.06 21.4573C153.661 21.4573 160.077 15.1858 160.077 7.76405C160.077 6.09358 158.719 4.73523 157.048 4.73523Z" fill="white"/>
<path d="M13.7352 22.7175C15.3016 21.1858 16.0993 19.2263 16.0993 16.9026C16.0993 15.1397 15.5964 13.6137 14.6138 12.3768C13.6716 11.186 12.1977 10.1861 10.2555 9.39995L8.08798 8.5098C7.34812 8.20923 6.46376 7.71214 6.46376 7.05898C6.46376 6.6428 6.60248 6.34223 6.94929 6.05322C7.59089 5.49832 8.78738 5.42318 9.50412 5.77577C9.53302 5.78733 9.72955 5.92028 10.0012 6.22663C10.8914 7.22082 12.3248 7.51561 13.4751 6.83355L13.5329 6.79887C15.0068 5.92606 15.3074 3.93767 14.1918 2.66025C12.6774 0.937751 10.7584 0.0649414 8.45791 0.0649414C6.3077 0.0649414 4.46961 0.729664 3.00145 2.03021C1.48705 3.35965 0.718287 5.04169 0.718287 7.03008C0.718287 9.97219 2.46967 12.1976 5.92043 13.66L8.00706 14.527C8.48103 14.7293 8.89143 14.9432 9.23245 15.1686C9.52724 15.3593 9.76423 15.5616 9.93185 15.7697C10.0821 15.9489 10.192 16.1397 10.2613 16.3477C10.3365 16.5732 10.3769 16.8391 10.3769 17.1281C10.3769 17.8679 10.1631 18.4286 9.70643 18.891C9.25557 19.3477 8.71802 19.5615 8.01284 19.5615C7.10536 19.5615 6.47532 19.2725 6.00713 18.6251C5.95511 18.5558 5.82794 18.3593 5.695 17.8795C5.29617 16.4345 3.79333 15.579 2.33095 15.9027C0.660485 16.2726 -0.322141 18.0298 0.232754 19.6482C0.700946 21.0124 1.42347 22.1511 2.39453 23.047C3.84535 24.3649 5.68922 25.0354 7.8799 25.0354C10.1862 25.0354 12.1514 24.2551 13.7236 22.7233L13.7352 22.7175Z" fill="white"/>
<path d="M26.2262 24.6423C27.7984 24.6423 29.07 23.3707 29.07 21.7985V15.8102H29.3879C31.937 15.8102 34.0178 15.1223 35.5727 13.7698C37.1738 12.371 37.983 10.4751 37.983 8.12831C37.983 5.9434 37.2316 4.09952 35.7519 2.65447C34.8906 1.80478 33.8791 1.22098 32.7462 0.91463C31.7057 0.6314 30.2491 0.492676 28.3012 0.492676H25.7869C24.4574 0.492676 23.3823 1.56779 23.3823 2.89724V21.8042C23.3823 23.3765 24.654 24.6481 26.2262 24.6481V24.6423ZM29.0642 5.92028C32.4051 5.95496 32.4051 7.38845 32.4051 8.08207C32.4051 8.87974 32.4051 10.3595 29.0873 10.3595H29.0642V5.92028Z" fill="white"/>
<path d="M64.3982 3.75286C61.959 1.31362 58.9938 0.0766602 55.5777 0.0766602C52.1616 0.0766602 49.1386 1.30206 46.6821 3.71818C44.2081 6.14008 42.9539 9.0822 42.9539 12.4636C42.9539 16.2901 44.3353 19.4403 47.0578 21.8218C49.5086 23.9546 52.3177 25.0355 55.4101 25.0355C58.8955 25.0355 61.9128 23.8159 64.3751 21.4114C66.8432 19.0068 68.0917 16.0416 68.0917 12.5908C68.0917 9.14001 66.849 6.19211 64.404 3.75286H64.3982ZM60.3752 17.5502C59.0285 18.9028 57.4216 19.5617 55.4505 19.5617C53.6529 19.5617 52.1096 18.9143 50.7166 17.5733C49.3351 16.2496 48.6646 14.5907 48.6646 12.5099C48.6646 10.429 49.3178 8.92036 50.653 7.57935C51.9882 6.22679 53.5836 5.56785 55.5315 5.56785C57.4794 5.56785 59.0747 6.22101 60.3984 7.57935C61.7278 8.92614 62.3752 10.5562 62.3752 12.5677C62.3752 14.5792 61.7162 16.1803 60.3752 17.5502Z" fill="white"/>
<path d="M79.9179 21.7117V11.1166L91.64 23.3475C92.3279 24.0585 93.3568 24.2839 94.2758 23.914C95.1891 23.544 95.7786 22.6712 95.7786 21.6828V3.244C95.7786 1.67179 94.507 0.400146 92.9348 0.400146C91.3626 0.400146 90.091 1.67179 90.091 3.244V13.7177L78.3688 1.45792C77.6868 0.746958 76.6579 0.521531 75.7388 0.885683C74.8198 1.25562 74.2302 2.12842 74.2302 3.11684V21.7059C74.2302 23.2781 75.5019 24.5498 77.0741 24.5498C78.6463 24.5498 79.9179 23.2781 79.9179 21.7059V21.7117Z" fill="white"/>
<path d="M129.044 21.2149L125.94 3.56794C125.755 2.52751 124.928 1.73562 123.876 1.60268C122.836 1.46395 121.824 2.02463 121.385 2.98992L116.373 13.9492L111.535 2.98992C111.108 2.02463 110.131 1.42349 109.067 1.568C108.015 1.6836 107.177 2.45815 106.975 3.4928L103.518 21.1513C103.172 22.9143 104.524 24.5558 106.322 24.5558C107.703 24.5558 108.888 23.5616 109.131 22.2033L110.535 14.3018L114.113 22.394C114.501 23.2726 115.339 23.8217 116.298 23.8275H116.31C117.264 23.8275 118.102 23.29 118.501 22.4172L122.177 14.3538L123.425 22.1628C123.645 23.5443 124.836 24.5616 126.24 24.5616C128.009 24.5616 129.356 22.9605 129.049 21.2207L129.044 21.2149Z" fill="white"/>
<path d="M16.4171 41.1736C15.394 40.7343 14.5501 40.1621 13.8507 39.4338C14.6368 38.1563 15.1454 36.6477 15.3246 35.0581H15.92C16.3997 35.0581 16.6541 34.6767 16.6541 34.2952C16.6541 33.8443 16.3535 33.5322 15.92 33.5322L12.1224 33.5437C12.4866 32.5553 12.6715 31.9311 12.6715 31.6941C12.6715 31.2085 12.2323 30.9195 11.8045 30.9195C11.4115 30.9195 11.1109 31.1623 11.0358 31.538C10.8797 32.3588 10.5502 33.4166 10.1109 34.3819C10.0647 34.035 9.80458 33.7171 9.34217 33.7171H8.61965L8.64277 31.5207C8.64277 30.4976 7.00121 30.4802 7.00121 31.5207V32.59C6.89139 32.2837 6.54458 32.1218 6.20933 32.1218C5.75848 32.1218 5.43479 32.3877 5.42323 32.7634C5.38277 33.5206 5.20358 34.9888 4.52152 36.3298C4.45216 36.4627 4.41748 36.5841 4.41748 36.6939C4.41748 37.0812 4.77007 37.376 5.23248 37.376C5.84518 37.376 6.15153 37.0523 6.5966 35.272H7.00121L6.98965 37.5436C6.46366 37.6939 5.90298 37.8269 5.30762 37.9425C4.85677 38.0292 4.56776 38.3644 4.56776 38.7921C4.56776 39.1736 4.84521 39.5783 5.35387 39.5783C5.61975 39.5783 6.53302 39.3124 6.98387 39.1794L6.96075 42.2718C6.96075 42.7689 7.37692 43.0348 7.78731 43.0348C8.1977 43.0348 8.59653 42.7747 8.60231 42.2834C8.68901 42.636 9.00692 42.9539 9.44622 42.9539C9.88551 42.9539 11.5386 42.1793 12.8681 40.7343C14.0472 42.0117 15.5212 42.8498 16.0125 42.8498C16.5558 42.8498 16.9315 42.3585 16.9315 41.9135C16.9315 41.584 16.7408 41.3065 16.4171 41.1678V41.1736ZM8.94912 36.5668C8.94912 36.6824 8.9838 36.7922 9.0416 36.8905C8.90288 36.9367 8.75838 36.9887 8.60809 37.0408V35.2662H9.34795C9.4809 35.2662 9.60228 35.2373 9.70054 35.1853C9.52714 35.5032 9.33639 35.798 9.14565 36.0523C9.0127 36.2315 8.94912 36.3991 8.94912 36.561V36.5668ZM13.6888 35.0524C13.5559 36.2026 13.2727 37.1968 12.8276 38.0754C12.3247 37.2026 11.9837 36.1853 11.8103 35.0408L13.6888 35.0524ZM6.99543 33.1565V33.7171H6.90873C6.93763 33.5553 6.97231 33.3414 6.99543 33.1565ZM8.59653 38.6534C9.92597 38.1968 10.3768 38.0234 10.3768 37.4222C10.3768 37.2951 10.3479 37.1737 10.2901 37.0639C10.3768 36.9829 10.4982 36.8558 10.6485 36.6246C10.9028 37.6072 11.3305 38.5783 11.897 39.4627C11.1571 40.3008 10.2265 40.9366 9.11675 41.3528C8.8393 41.4626 8.66011 41.6533 8.59653 41.8903V38.6476V38.6534Z" fill="white"/>
<path d="M28.7001 31.1508C27.8504 31.1277 26.8909 31.1219 25.9603 31.1508C24.9777 31.1855 24.4979 31.8733 24.469 32.5034C24.4459 32.9427 24.417 33.5843 24.417 34.1334C24.417 35.8385 25.1569 35.9252 27.3013 35.9252C27.8099 35.9252 28.307 35.9137 28.7405 35.8848C29.6249 35.8385 30.1682 35.3472 30.1971 34.5727C30.2087 34.353 30.2087 34.1103 30.2087 33.8675C30.2087 33.2779 30.1914 32.7866 30.1567 32.4109C30.1104 31.7635 29.4399 31.1855 28.6943 31.1566L28.7001 31.1508ZM25.9661 32.8502V32.8328C25.9776 32.5939 26.4323 32.4745 27.3302 32.4745C28.228 32.4745 28.6558 32.5901 28.6134 32.8213V32.856H25.9603L25.9661 32.8502ZM28.6423 34.1565V34.3126C28.6307 34.5611 28.6307 34.6016 27.2493 34.6016C26.0701 34.6016 25.9372 34.6016 25.9256 34.1565H28.6423Z" fill="white"/>
<path d="M31.0527 36.0755H24.0702C23.5847 36.0755 23.3246 36.4455 23.3246 36.7981C23.3246 36.8559 23.3304 36.9079 23.3419 36.9599H23.3246C23.157 37.0582 22.9778 37.1391 22.7813 37.2316V35.301H23.5211C23.9835 35.301 24.2263 34.9253 24.2263 34.5553C24.2263 34.1854 23.9835 33.8097 23.5211 33.8097H22.7986V31.7751C22.7986 31.33 22.4634 31.0121 21.9836 31.0121C21.5848 31.0121 21.1802 31.2722 21.1802 31.7751V33.8097H20.3767C19.9201 33.8097 19.6427 34.2028 19.6427 34.5842C19.6427 34.9311 19.8739 35.3068 20.3767 35.3068H21.1802L21.1917 37.8905C20.8334 38.0119 20.423 38.1506 20.0357 38.2547C19.6831 38.3472 19.4519 38.6477 19.4519 39.0119C19.4519 39.376 19.7178 39.7864 20.2149 39.7864C20.7871 39.7864 23.1107 38.694 23.9026 38.2778C24.2032 38.1159 24.3708 37.8501 24.3708 37.5553C24.3708 37.5321 24.3708 37.509 24.3708 37.4859H24.9951C24.3535 38.3587 23.6252 38.9599 22.5501 39.5148C22.3015 39.6477 22.157 39.8616 22.157 40.1043C22.157 40.4743 22.4749 40.8673 22.9431 40.8673C23.4922 40.8673 24.839 39.8038 25.5384 39.0639C25.6367 39.0639 25.7407 39.0639 25.8505 39.0581H25.9315C25.3072 39.9772 24.4691 40.6534 23.394 41.1159C23.1281 41.2315 22.972 41.4569 22.972 41.7401C22.972 42.1216 23.261 42.5147 23.7466 42.5147C24.5153 42.5147 26.5037 41.0349 27.6135 39.0523H28.0008C27.4285 40.3355 26.7002 41.1101 25.5384 41.6939C25.2725 41.821 25.1107 42.058 25.1107 42.3297C25.1107 42.6881 25.4112 43.0754 25.8968 43.0754C26.2089 43.0754 26.7522 42.7806 27.3014 42.3413C27.4574 42.8557 28.099 42.9308 28.6655 42.9308C29.6886 42.9308 30.4458 42.4222 30.8041 41.5031C31.0238 40.954 31.1798 39.7864 31.1798 39.2662C31.1798 38.3125 30.6712 37.7576 29.7753 37.7402H28.7984C28.0701 37.7402 27.2609 37.7402 26.5615 37.746C26.6193 37.6593 26.6771 37.5726 26.7349 37.4801H31.0469C31.544 37.4801 31.7694 37.1102 31.7694 36.7749C31.7694 36.4397 31.5209 36.0813 31.0469 36.0813L31.0527 36.0755ZM28.3013 41.3182C28.8273 40.665 29.2782 39.8905 29.5787 39.0928C29.6192 39.1275 29.6423 39.1911 29.6423 39.3009V39.3529C29.4805 41.3586 28.9834 41.3586 28.6539 41.3586C28.5614 41.3586 28.4574 41.3471 28.3013 41.3182Z" fill="white"/>
<path d="M43.7112 33.8445C42.0003 32.8156 39.4859 32.9428 37.7287 34.1566C35.8213 35.4803 34.9485 38.0583 35.8213 39.7808C36.1854 40.4917 36.7403 40.9657 37.3415 41.0755C37.8559 41.168 38.3819 40.9888 38.8559 40.5553C40.1217 39.3819 41.3818 36.8502 41.613 35.0294C41.6361 34.8849 41.6246 34.7462 41.5899 34.619C42.0292 34.6942 42.4338 34.8503 42.7979 35.0815C44.0638 35.8849 44.3528 37.5323 43.4742 38.9195C43.0812 39.538 42.1274 40.1045 41.0986 40.3357C40.6882 40.4339 40.3992 40.6709 40.3067 40.9888C40.2258 41.2663 40.3067 41.5553 40.509 41.7691C40.694 41.9599 40.9541 42.0582 41.2489 42.0582C41.3702 42.0582 41.4974 42.0408 41.6303 42.0061C43.0812 41.6246 44.3759 40.7461 45.006 39.7172C45.6418 38.671 45.8499 37.4398 45.5782 36.3358C45.3181 35.2896 44.6707 34.4283 43.6996 33.8445H43.7112ZM39.9079 34.7231C39.9021 34.7636 39.8963 34.8098 39.8905 34.8503C39.7518 36.3126 38.7981 38.3762 37.879 39.1796C37.7923 39.2548 37.7114 39.2837 37.6305 39.2721C37.5091 39.249 37.3819 39.1276 37.2837 38.9369C36.775 38.0062 37.3935 36.3242 38.5842 35.3994C38.983 35.0988 39.4339 34.8618 39.9079 34.7173V34.7231Z" fill="white"/>
<path d="M58.3234 38.7112C57.8783 38.7112 57.4679 39.0869 57.4679 39.4973C57.4679 39.6245 57.5084 39.7401 57.5835 39.8441C57.4563 39.7979 57.3234 39.7805 57.1962 39.7805C56.7165 39.7805 56.3812 40.0869 56.3812 40.5319C56.3812 41.1562 55.8841 41.2718 54.8379 41.2718C54.1058 41.2718 53.7397 41.0117 53.7397 40.4915C53.7397 40.2834 53.7512 40.058 53.7628 39.821C53.7686 39.6765 53.7744 39.5262 53.7801 39.3412C53.7801 38.4626 52.2137 38.4337 52.179 39.3354C52.1501 39.9539 52.1501 40.5319 52.1501 41.0984C52.1501 42.7573 53.5489 42.7573 54.7859 42.7573C55.8552 42.7573 58.0864 42.7573 58.0864 40.6071C58.0864 40.4337 58.0459 40.2892 57.9765 40.1793C58.4736 40.5319 58.8898 40.9828 59.2251 41.5319C59.4042 41.8209 59.6701 41.9828 59.9591 41.9828C60.4215 41.9828 60.8146 41.5782 60.8146 41.1042C60.8146 40.2025 58.884 38.7227 58.3176 38.7227L58.3234 38.7112Z" fill="white"/>
<path d="M51.156 38.9943C50.8034 38.9943 50.526 39.2081 50.4161 39.5665C50.289 39.9942 49.63 40.6879 49.2948 40.8786C48.9827 41.0578 48.8035 41.3295 48.8035 41.6127C48.8035 42.052 49.2196 42.4277 49.711 42.4277C50.7225 42.4277 51.9826 40.5087 51.9826 39.7804C51.9826 39.3122 51.5548 38.9943 51.156 38.9943Z" fill="white"/>
<path d="M53.6991 38.7748C53.6991 39.0234 53.8321 39.2373 54.0691 39.3529C54.4216 39.532 54.913 39.8846 55.2309 40.2719C55.4332 40.5147 55.6528 40.5667 55.8031 40.5667C56.2251 40.5667 56.5892 40.1736 56.5892 39.7286C56.5892 39.2026 55.9187 38.6766 55.3176 38.3471C56.0979 38.3471 56.8666 38.3298 57.5603 38.3066C58.5429 38.2777 59.0862 37.6072 59.1151 36.9599C59.1267 36.5841 59.144 36.168 59.144 35.7691C59.144 35.4397 59.1325 35.1218 59.1151 34.8038C59.0689 34.2374 58.4851 33.6189 57.6238 33.6016C57.0747 33.59 56.3464 33.59 55.5719 33.59V33.2547L59.4273 33.2663C59.9301 33.2663 60.1613 32.8848 60.1613 32.5322C60.1613 32.1796 59.9301 31.8097 59.4273 31.8097L55.5719 31.8213V31.434C55.5719 30.8907 55.1557 30.6074 54.7453 30.6074C54.3349 30.6074 53.9303 30.8964 53.9303 31.434V31.8213L50.1559 31.8097C49.6472 31.8097 49.3813 32.1739 49.3813 32.5322C49.3813 32.8906 49.6472 33.2663 50.1559 33.2663L53.9245 33.2547V33.5784C53.1384 33.5784 52.4275 33.59 51.9824 33.6073C50.5952 33.6478 50.4391 34.6015 50.4218 34.8963C50.4102 35.22 50.4102 35.5553 50.4102 35.9079C50.4102 36.2605 50.4102 36.6073 50.4218 37.0003C50.4565 37.798 51.046 38.2893 52.0055 38.3124C52.5893 38.3298 53.202 38.3413 53.8378 38.3471C53.7454 38.48 53.6991 38.6303 53.6991 38.7806V38.7748ZM53.9766 34.8443V35.3009H51.9073C51.9073 35.2547 51.9073 35.2142 51.9073 35.1738C51.9131 35.0351 51.9651 34.879 52.3003 34.8674C52.6934 34.8559 53.3061 34.8443 53.965 34.8385L53.9766 34.8443ZM52.3292 37.0234C51.9766 37.0061 51.9188 36.9425 51.9073 36.5379H53.9823V37.035C53.3465 37.035 52.7685 37.035 52.3292 37.0177V37.0234ZM55.5141 35.3009V34.8443C57.5603 34.8443 57.5603 34.8732 57.5776 35.168C57.5776 35.2142 57.5776 35.2605 57.5776 35.3009H55.5083H55.5141ZM55.5141 37.0408V36.5437H57.5892C57.5718 36.9367 57.4793 37.0292 57.1846 37.0292C56.7221 37.0408 56.1383 37.0466 55.5141 37.0466V37.0408Z" fill="white"/>
<path d="M73.0105 35.2836C72.6521 35.4859 72.288 35.6419 71.9816 35.7691C71.5019 35.9772 70.9932 36.2315 70.5077 36.4743C70.0973 35.7113 69.3806 35.3009 68.5078 35.3414C68.6696 35.0177 68.8257 34.6824 68.9586 34.3703C69.3517 34.2836 69.9817 34.1218 70.3747 33.9368C70.8661 33.6882 70.9528 33.3356 70.9585 33.1449C70.9701 32.8559 70.814 32.5727 70.5597 32.4282C70.3054 32.2779 69.999 32.2837 69.7331 32.4455C69.6753 32.4744 69.6118 32.5091 69.5366 32.538C69.5713 32.3704 69.5886 32.1912 69.5771 32.012C69.5597 31.5669 69.1436 31.3241 68.7447 31.3184H68.7332C68.3401 31.3184 67.9066 31.5553 67.8719 32.0756C67.8488 32.486 67.8257 32.7345 67.7563 33.0409C67.7217 33.0409 67.6928 33.0466 67.6754 33.0524C67.4326 33.0929 66.7795 33.2085 66.5541 33.0524C66.2188 32.827 65.8604 32.7865 65.5714 32.9426C65.3113 33.0813 65.1553 33.3588 65.161 33.6593C65.1668 34.0004 65.3749 34.3009 65.7391 34.4801C66.1321 34.6767 66.5714 34.746 67.1668 34.6882C67.0223 34.983 66.8604 35.2778 66.6928 35.5552C66.3749 36.0755 65.8489 36.5783 65.6408 36.7749C65.1784 37.191 65.2131 37.6477 65.4501 37.9136C65.7333 38.2315 66.3171 38.3066 66.791 37.8789C66.8893 37.798 66.976 37.6881 67.0743 37.561L67.1725 37.4569C67.6349 36.9251 68.1552 36.6535 68.5309 36.7286C68.8083 36.7864 68.9702 37.0176 69.0626 37.2431C68.9239 37.3298 68.7968 37.4107 68.6812 37.4858L68.5367 37.5783C67.1032 38.5205 66.3344 39.5783 66.3691 40.5609C66.3922 41.2603 66.8257 41.8672 67.6118 42.3123C68.1725 42.6244 68.9066 42.7285 69.5944 42.7285C70.3574 42.7285 71.0568 42.6071 71.4036 42.5204C71.8602 42.399 72.1781 42.1215 72.2764 41.7574C72.3516 41.4626 72.2649 41.1505 72.051 40.9424C71.7967 40.6996 71.4036 40.6303 70.9817 40.7632C70.3979 40.9482 69.1262 41.2141 68.4731 40.8788C68.2765 40.7805 68.0338 40.6014 68.0164 40.3297C68.0049 40.11 68.1436 39.6361 69.1956 38.954C69.2129 38.9424 69.2361 38.9309 69.2534 38.9193C69.2534 39.0985 69.2418 39.2835 69.2303 39.4511C69.2014 39.8384 69.3343 40.0696 69.4557 40.191C69.6002 40.3412 69.8141 40.4222 70.0279 40.4164C70.4441 40.399 70.8834 40.0465 70.9123 39.4106C70.9354 38.9829 70.9296 38.4858 70.895 38.0407C71.473 37.7691 71.999 37.5436 72.4614 37.3644C72.7215 37.2662 72.9238 37.1968 73.103 37.1332C73.4151 37.0234 73.6405 36.9483 73.9238 36.8095C74.2359 36.6535 74.4208 36.376 74.4324 36.0523C74.444 35.7286 74.2821 35.4107 74.0105 35.2431C73.8428 35.1391 73.4845 35.0061 72.9989 35.2778L73.0105 35.2836Z" fill="white"/>
<path d="M83.9582 39.7694C83.9351 39.3474 83.8946 38.9139 83.8599 38.5555C83.8253 38.2145 83.8021 37.8504 83.779 37.4631C84.1258 37.3764 84.5073 37.2666 84.9177 37.151C85.5131 36.9833 85.6807 36.6365 85.7269 36.4458C85.7905 36.1799 85.7038 35.9082 85.5015 35.7175C85.253 35.492 84.883 35.4285 84.5073 35.5498C84.2357 35.6423 83.9755 35.7175 83.727 35.7868C83.7212 35.4285 83.7212 35.0643 83.7212 34.7059L83.8657 34.677C84.0854 34.6366 84.3224 34.5961 84.5651 34.5556C85.1547 34.4632 85.3512 34.1395 85.4148 33.9603C85.5073 33.706 85.4495 33.417 85.2645 33.2031C85.0622 32.9777 84.7443 32.8852 84.4206 32.9603C84.2761 32.9892 84.1374 33.0239 83.9987 33.0528C83.912 33.0759 83.8253 33.0933 83.7386 33.1106C83.7559 32.654 83.779 32.2089 83.8137 31.7985C83.831 31.5095 83.6981 31.2494 83.4438 31.0875C83.1605 30.9026 82.7848 30.8794 82.5074 31.024C82.2415 31.1627 82.0854 31.4401 82.0739 31.7927C82.0623 32.1916 82.0623 32.758 82.0739 33.4054C81.2704 33.5152 80.7098 33.5383 80.2127 33.4748C79.6173 33.3996 79.3399 33.6597 79.23 33.8158C79.0682 34.047 79.0509 34.3476 79.1838 34.6077C79.3399 34.914 79.6636 35.099 80.0566 35.1105C80.704 35.1163 81.334 35.0759 82.1143 34.9603C82.1259 35.3591 82.149 35.7579 82.1664 36.151C81.1028 36.3417 80.5537 36.2897 80.3109 36.2435C79.9294 36.1568 79.5884 36.255 79.3745 36.4978C79.178 36.7232 79.126 37.0527 79.23 37.3417C79.3456 37.6423 79.6115 37.8446 79.9583 37.8908C80.6115 37.9775 81.2878 37.9486 82.2473 37.781C82.2704 38.1162 82.2935 38.4168 82.3166 38.6885V38.7521C82.3398 38.9486 82.3571 39.1336 82.3687 39.3185C81.4843 39.2029 80.652 39.2954 79.941 39.5902C79.2011 39.9023 78.7676 40.4514 78.7503 41.0931C78.7329 41.7289 79.1433 42.33 79.8196 42.671C80.2647 42.8965 80.7387 43.0063 81.2126 43.0063C81.5594 43.0063 81.912 42.9427 82.2415 42.8213C82.8889 42.5786 83.4322 42.1161 83.727 41.5612C83.9929 41.7347 84.2588 41.937 84.5015 42.1508C84.8946 42.515 85.2472 42.4687 85.4321 42.4109C85.7211 42.3127 85.935 42.0583 85.9928 41.7346C86.0622 41.3532 85.9061 40.9774 85.5593 40.6942C85.0969 40.3185 84.5362 39.989 83.964 39.7578L83.9582 39.7694ZM82.1953 40.8792C82.0912 41.0757 81.9063 41.2433 81.6693 41.3532C81.2878 41.5266 80.8369 41.5208 80.467 41.3416C80.3687 41.2896 80.3167 41.2202 80.3167 41.1393C80.3167 41.0468 80.3919 40.9601 80.4959 40.9139C80.7387 40.8098 81.0219 40.7578 81.3282 40.7578C81.5999 40.7578 81.8889 40.7983 82.1953 40.8792Z" fill="white"/>
<path d="M97.5533 36.7172C96.7383 36.2317 95.5707 36.1277 94.513 36.4051C94.6575 36.2722 94.802 36.1392 94.9523 36.0005L95.38 35.6074C96.0158 35.0179 96.5071 34.5265 96.8886 34.0988C97.2065 33.7404 97.2585 33.2954 97.0216 32.9196C96.7152 32.4341 96.0621 32.226 95.4147 32.411C94.5708 32.6595 93.3396 32.9601 92.5015 33.0584C92.172 33.0988 91.9235 33.278 91.8136 33.5497C91.7096 33.8214 91.7616 34.1393 91.9524 34.3589C92.1662 34.6132 92.513 34.7115 92.9119 34.6248C93.6228 34.4745 94.2818 34.2896 94.7384 34.1219C93.565 35.5323 92.6286 36.4571 91.4726 37.6016L91.0449 38.0293C90.6634 38.4051 90.7039 38.7519 90.7617 38.9195C90.8599 39.2201 91.1663 39.457 91.5131 39.5091C91.8368 39.5553 92.1431 39.4224 92.3223 39.1623C92.6055 38.7403 92.8541 38.5207 93.3858 38.2143C94.6517 37.4744 96.0274 37.5438 96.6805 37.9831C96.958 38.1681 97.1314 38.486 97.1603 38.8617C97.195 39.3877 96.9522 39.9252 96.484 40.3356C96.3279 40.4744 96.1545 40.5842 95.9985 40.6535C95.9349 40.1969 95.7326 39.7981 95.4031 39.4917C94.9754 39.0987 94.3511 38.8848 93.7153 38.9079C92.8714 38.9368 92.2009 39.3992 92.0044 40.0929C91.8252 40.7518 92.1373 41.4339 92.8252 41.8847C93.2934 42.1911 93.9928 42.3645 94.75 42.3645C95.6632 42.3645 96.669 42.1159 97.4609 41.5437C98.3394 40.9079 98.8943 39.8039 98.8539 38.7865C98.8134 37.9253 98.3568 37.1912 97.5533 36.7115V36.7172ZM93.4668 40.4455C93.4899 40.3472 93.5997 40.2778 93.7731 40.2605C93.9754 40.2489 94.1373 40.2952 94.2644 40.4166C94.3916 40.5322 94.4725 40.7113 94.4956 40.9252C94.1662 40.9137 93.8598 40.8501 93.6517 40.746C93.4957 40.6651 93.4436 40.5379 93.461 40.4512L93.4668 40.4455Z" fill="white"/>
<path d="M110.634 31.8158C110.206 31.5961 109.767 31.7926 109.599 32.099C109.46 32.3533 109.501 32.7059 109.894 32.9313C110.125 33.0643 110.686 33.5903 110.819 33.7926C110.94 33.9833 111.125 34.0874 111.333 34.0874C111.351 34.0874 111.362 34.0874 111.379 34.0874C111.64 34.07 111.888 33.8851 112.01 33.625C112.131 33.3591 112.096 33.0643 111.917 32.8215C111.645 32.4516 110.992 32.0007 110.634 31.8158Z" fill="white"/>
<path d="M110.35 39.9074C108.01 40.5721 106.137 40.4102 105.212 39.4623C104.778 39.023 104.281 39.0808 103.975 39.3351C103.663 39.5952 103.501 40.1212 103.819 40.5721C104.518 41.5547 106.293 42.1212 108.189 42.1212C109.067 42.1212 109.975 41.9998 110.807 41.7397C111.478 41.5316 111.697 40.942 111.57 40.4912C111.449 40.0808 111.021 39.7282 110.356 39.9131L110.35 39.9074Z" fill="white"/>
<path d="M105.501 35.1856C106.761 34.9428 108.142 34.9543 109.397 35.226C109.489 35.2434 109.582 35.2549 109.668 35.2549C110.166 35.2549 110.495 34.937 110.57 34.5729C110.663 34.1336 110.402 33.6191 109.732 33.4746C108.518 33.2087 106.593 33.255 105.397 33.4342C104.94 33.4977 104.605 33.7405 104.472 34.0931C104.362 34.3821 104.408 34.7 104.599 34.9254C104.802 35.1682 105.131 35.2665 105.501 35.1913V35.1856Z" fill="white"/>
<path d="M112.136 30.9315C111.703 30.7292 111.264 30.9488 111.108 31.2667C110.98 31.5268 111.027 31.8794 111.426 32.0933C111.668 32.2205 112.258 32.7118 112.391 32.9025C112.518 33.0817 112.697 33.18 112.894 33.18C112.917 33.18 112.934 33.18 112.951 33.18C113.212 33.1511 113.449 32.9661 113.564 32.706C113.68 32.4401 113.639 32.1511 113.449 31.9083C113.148 31.5268 112.478 31.0933 112.136 30.9315Z" fill="white"/>
<path d="M123.31 40.2895C122.558 40.5669 120.691 40.9138 119.801 40.4687C119.425 40.2837 119.217 40.0409 119.177 39.7519C119.119 39.3011 119.466 38.7288 120.159 38.145C121.281 37.1971 122.761 36.3936 123.922 35.8041C124.298 35.6133 124.518 35.3012 124.535 34.9486C124.547 34.6307 124.391 34.3301 124.119 34.1625C123.841 33.9891 123.495 34.0006 123.171 34.1798C122.408 34.6018 121.697 35.0411 120.998 35.5208C120.605 34.4746 120.038 33.3648 119.495 32.5903C119.292 32.3013 118.969 32.151 118.622 32.1972C118.281 32.2377 117.98 32.4458 117.859 32.7406C117.79 32.9082 117.726 33.2434 118.044 33.6307C118.582 34.2839 119.2 35.4746 119.576 36.5613C119.518 36.6075 119.46 36.6538 119.402 36.7L119.292 36.7925C118.067 37.7693 117.425 38.9427 117.535 40.0178C117.616 40.8386 118.142 41.5322 119.003 41.9715C119.639 42.2952 120.472 42.4108 121.298 42.4108C122.223 42.4108 123.136 42.2663 123.749 42.0929C124.194 41.9657 124.5 41.6767 124.581 41.2895C124.656 40.96 124.552 40.6247 124.31 40.4109C124.055 40.1912 123.685 40.145 123.304 40.2953L123.31 40.2895Z" fill="white"/>
<path d="M140.072 41.0753C139.107 40.7111 138.298 40.2371 137.662 39.6649C138.98 37.8904 139.644 35.8442 139.644 35.1795C139.644 34.4512 139.153 34.0119 138.303 33.9772H137.899C138.072 33.457 138.292 32.7402 138.292 32.3819C138.292 31.7171 137.806 31.2778 137.049 31.2605H135.968C134.991 31.2605 133.841 31.2605 133.038 31.2721C132.575 31.2721 132.332 31.6362 132.332 31.9946C132.332 32.0177 132.332 32.0466 132.332 32.0697C132.095 31.8732 131.772 31.7518 131.402 31.7403C131.13 31.7287 130.847 31.7287 130.564 31.7287C129.876 31.7287 128.587 31.7287 128.558 33.1102C128.546 33.7113 128.546 34.4396 128.546 35.1737C128.546 35.9078 128.546 36.6361 128.558 37.2892C128.575 38.0696 129.084 38.6476 129.83 38.7285C130.067 38.7574 130.344 38.769 130.627 38.769C131.72 38.769 132.743 38.5898 132.789 37.3066C132.818 36.7112 132.829 36.0176 132.829 35.3066C132.829 34.4685 132.818 33.6882 132.789 33.0581C132.789 32.9136 132.76 32.7749 132.72 32.6477C132.91 32.7344 133.176 32.7171 133.471 32.7113C133.592 32.7113 133.72 32.7113 133.853 32.7055C133.853 32.7344 133.853 32.7576 133.853 32.7865C133.853 32.8732 133.858 32.9541 133.858 33.0408C133.858 34.4569 133.575 39.2429 129.968 41.3065C129.668 41.4683 129.494 41.7226 129.494 42.0059C129.494 42.4394 129.899 42.8093 130.379 42.8093C130.65 42.8093 131.327 42.5261 132.107 41.8267C132.061 41.925 132.038 42.029 132.038 42.1446C132.038 42.5377 132.332 42.9596 132.882 42.9596C133.13 42.9596 134.853 42.5723 136.592 40.9019C137.951 42.3238 139.448 42.8035 139.743 42.8035C140.309 42.8035 140.662 42.3296 140.662 41.8961C140.662 41.5261 140.436 41.2256 140.06 41.0926L140.072 41.0753ZM130.668 37.2777C130.119 37.2777 130.113 37.1794 130.107 37.058C130.095 36.4685 130.078 35.8326 130.078 35.191C130.078 34.5494 130.09 33.9252 130.101 33.3876C130.113 33.2373 130.2 33.1564 130.627 33.1564C131.159 33.1564 131.223 33.22 131.228 33.3645C131.251 33.902 131.269 34.5263 131.269 35.1737C131.269 35.8211 131.257 36.4627 131.228 37.0349C131.223 37.1563 131.217 37.2719 130.662 37.2719L130.668 37.2777ZM135.835 35.0696C135.8 35.1621 135.783 35.2373 135.783 35.3124C135.783 35.6708 136.124 35.9425 136.569 35.9425C136.928 35.9425 137.199 35.7806 137.326 35.5032C137.338 35.4743 137.35 35.4454 137.367 35.4107C137.367 35.4049 137.367 35.3991 137.373 35.3933H137.789C137.899 35.3933 137.899 35.428 137.899 35.4685C137.899 35.48 137.685 36.902 136.621 38.4279C135.847 37.2025 135.459 35.665 135.448 33.7402V33.6708C135.471 33.3414 135.483 33.0235 135.488 32.694C135.91 32.694 136.292 32.694 136.587 32.7113C136.627 32.7113 136.627 32.7344 136.627 32.7402C136.627 32.9079 136.234 34.1795 135.841 35.0754L135.835 35.0696ZM134.691 37.6476C134.928 38.3644 135.234 39.0291 135.61 39.6187C134.754 40.4568 133.76 41.0406 132.65 41.3643C132.61 41.3758 132.569 41.3932 132.529 41.4105C133.298 40.5955 134.113 39.3759 134.691 37.6476Z" fill="white"/>
<path d="M154.904 41.0635C153.91 40.6184 153.066 40.0115 152.407 39.2485C154.124 36.3642 154.395 33.1446 154.395 33.1157C154.395 32.1794 153.788 31.636 152.725 31.6187C152.551 31.6187 152.349 31.6187 152.129 31.6129C151.187 31.6013 149.939 31.6129 148.893 31.6302C148.372 31.6476 148.101 32.0406 148.101 32.4163C148.101 32.7921 148.361 33.1504 148.898 33.1504C150.083 33.1042 151.627 33.11 152.453 33.1389C152.627 33.1446 152.661 33.214 152.661 33.3296C152.661 33.3527 152.43 35.6532 151.43 37.7341C150.916 36.659 150.604 35.3642 150.505 33.8787C150.471 33.3759 150.072 33.1446 149.719 33.1446C149.332 33.1446 148.945 33.399 148.945 33.8903C148.945 33.9192 149.014 36.7399 150.488 39.2659C149.823 40.1271 149.002 40.8034 148.049 41.2774C147.95 41.3236 147.87 41.3814 147.794 41.445V31.7054C147.794 30.7112 146.124 30.6245 146.124 31.7054L146.164 37.6705C145.881 37.8035 145.546 37.9364 145.211 38.0578L145.222 33.3354C145.222 32.8556 144.818 32.6013 144.419 32.6013C144.02 32.6013 143.604 32.8614 143.604 33.3354V38.5433C143.54 38.5549 143.477 38.5665 143.413 38.5838C143.008 38.6705 142.748 38.9884 142.748 39.3815C142.748 39.7745 143.026 40.1965 143.563 40.1965C143.847 40.1965 144.835 39.9653 146.159 39.2543L146.124 42.3467V42.3641C146.124 42.8438 146.54 43.0981 146.95 43.0981C147.303 43.0981 147.656 42.919 147.76 42.5721C147.922 42.7282 148.159 42.8323 148.407 42.8323C148.864 42.8323 150.239 42.0924 151.447 40.6127C152.725 42.0866 154.129 42.7398 154.465 42.7398C155.008 42.7398 155.384 42.2311 155.384 41.7803C155.384 41.4623 155.205 41.2022 154.898 41.0635H154.904Z" fill="white"/>
</svg>
