<svg width="150" height="24" viewBox="0 0 150 24" fill="none" xmlns="http://www.w3.org/2000/svg">
<path d="M147.16 4.6737C145.594 4.6737 144.321 5.94172 144.321 7.5132C144.321 11.3281 140.831 14.6716 136.859 14.6716C132.887 14.6716 129.397 11.3281 129.397 7.5132C129.397 5.94714 128.129 4.6737 126.558 4.6737C124.986 4.6737 123.718 5.94172 123.718 7.5132C123.718 14.4711 129.733 20.3506 136.859 20.3506C143.985 20.3506 150 14.4711 150 7.5132C150 5.94714 148.727 4.6737 147.16 4.6737Z" fill="black"/>
<path d="M12.8044 21.5318C14.2729 20.0958 15.0207 18.2588 15.0207 16.0804C15.0207 14.4277 14.5493 12.9971 13.6281 11.8374C12.7448 10.7211 11.363 9.78367 9.54224 9.0467L7.51015 8.21219C6.81654 7.93041 5.98745 7.46438 5.98745 6.85205C5.98745 6.46189 6.1175 6.18011 6.44263 5.90916C7.04413 5.38895 8.16584 5.3185 8.83778 5.64905C8.86488 5.65989 9.04912 5.78453 9.30381 6.07173C10.1383 7.00378 11.4822 7.28014 12.5606 6.64071L12.6148 6.6082C13.9966 5.78995 14.2784 3.92585 13.2325 2.72827C11.8128 1.11344 10.0137 0.295189 7.85696 0.295189C5.84114 0.295189 4.11793 0.918362 2.74153 2.13761C1.32178 3.38396 0.601067 4.96086 0.601067 6.82495C0.601067 9.58317 2.24299 11.6694 5.47807 13.0404L7.43429 13.8533C7.87864 14.0429 8.26338 14.2434 8.5831 14.4548C8.85946 14.6336 9.08163 14.8232 9.23878 15.0183C9.37967 15.1863 9.48263 15.3651 9.54766 15.5602C9.6181 15.7715 9.65604 16.0208 9.65604 16.2918C9.65604 16.9854 9.45554 17.511 9.02744 17.9445C8.60477 18.3726 8.10081 18.5731 7.43971 18.5731C6.58894 18.5731 5.99828 18.3022 5.55935 17.6953C5.51058 17.6302 5.39137 17.446 5.26673 16.9962C4.89283 15.6415 3.48392 14.8395 2.11294 15.143C0.546878 15.4898 -0.374334 17.1371 0.14588 18.6544C0.58481 19.9333 1.26217 21.0008 2.17255 21.8407C3.53269 23.0762 5.26131 23.7048 7.31507 23.7048C9.47721 23.7048 11.3196 22.9733 12.7936 21.5372L12.8044 21.5318Z" fill="black"/>
<path d="M24.5147 23.3363C25.9886 23.3363 27.1808 22.1442 27.1808 20.6702V15.0562H27.4788C29.8686 15.0562 31.8194 14.4114 33.277 13.1434C34.7781 11.832 35.5367 10.0546 35.5367 7.85454C35.5367 5.8062 34.8323 4.07757 33.445 2.72285C32.6376 1.92627 31.6893 1.37896 30.6272 1.09176C29.6518 0.826236 28.2862 0.696182 26.4601 0.696182H24.1029C22.8565 0.696182 21.8486 1.7041 21.8486 2.95044V20.6756C21.8486 22.1496 23.0408 23.3417 24.5147 23.3417V23.3363ZM27.1754 5.78452C30.3075 5.81704 30.3075 7.16092 30.3075 7.81119C30.3075 8.559 30.3075 9.94623 27.197 9.94623H27.1754V5.78452Z" fill="black"/>
<path d="M60.3011 3.75245C58.0144 1.46568 55.2345 0.306036 52.0319 0.306036C48.8293 0.306036 45.9953 1.45484 43.6922 3.71994C41.3729 5.99045 40.1971 8.74867 40.1971 11.9187C40.1971 15.506 41.4922 18.4593 44.0445 20.6919C46.3421 22.6915 48.9757 23.7048 51.8748 23.7048C55.1424 23.7048 57.971 22.5614 60.2795 20.3072C62.5933 18.0529 63.7638 15.273 63.7638 12.0379C63.7638 8.80286 62.5987 6.03922 60.3066 3.75245H60.3011ZM56.5296 16.6873C55.267 17.9554 53.7605 18.5731 51.9127 18.5731C50.2274 18.5731 48.7806 17.9662 47.4746 16.709C46.1795 15.4681 45.5509 13.9129 45.5509 11.9621C45.5509 10.0113 46.1633 8.59694 47.415 7.33976C48.6668 6.07174 50.1624 5.45398 51.9886 5.45398C53.8147 5.45398 55.3103 6.06632 56.5513 7.33976C57.7976 8.60236 58.4045 10.1305 58.4045 12.0163C58.4045 13.902 57.7868 15.4031 56.5296 16.6873Z" fill="black"/>
<path d="M74.8508 20.589V10.6562L85.8403 22.1225C86.4852 22.7891 87.4497 23.0004 88.3113 22.6536C89.1675 22.3068 89.7202 21.4885 89.7202 20.5619V3.27562C89.7202 1.80169 88.5281 0.609529 87.0542 0.609529C85.5802 0.609529 84.3881 1.80169 84.3881 3.27562V13.0947L73.3985 1.60119C72.7591 0.934663 71.7946 0.723326 70.9329 1.06472C70.0713 1.41153 69.5186 2.22978 69.5186 3.15641V20.5836C69.5186 22.0575 70.7108 23.2497 72.1847 23.2497C73.6586 23.2497 74.8508 22.0575 74.8508 20.5836V20.589Z" fill="black"/>
<path d="M120.906 20.1229L117.996 3.57901C117.823 2.60361 117.048 1.86122 116.061 1.73659C115.086 1.60653 114.138 2.13217 113.726 3.03712L109.028 13.3113L104.492 3.03712C104.091 2.13217 103.175 1.5686 102.178 1.70407C101.192 1.81245 100.406 2.53858 100.217 3.50857L96.9761 20.0633C96.651 21.716 97.919 23.255 99.6043 23.255C100.899 23.255 102.01 22.323 102.238 21.0495L103.555 13.6419L106.909 21.2283C107.272 22.052 108.058 22.5668 108.957 22.5722H108.968C109.862 22.5722 110.648 22.0683 111.022 21.25L114.468 13.6907L115.639 21.0116C115.845 22.3067 116.961 23.2604 118.278 23.2604C119.936 23.2604 121.199 21.7594 120.911 20.1283L120.906 20.1229Z" fill="black"/>
</svg>
