<svg width="24" height="24" viewBox="0 0 24 24" fill="none" xmlns="http://www.w3.org/2000/svg">
<path d="M7.0301 0.0912493C5.7533 0.151489 4.88138 0.355249 4.11914 0.654769C3.33026 0.962209 2.66162 1.37477 1.99634 2.04245C1.33106 2.71013 0.92138 3.37925 0.616099 4.16933C0.320659 4.93325 0.120499 5.80589 0.0640995 7.08341C0.00769947 8.36093 -0.00478054 8.77157 0.00145946 12.0303C0.00769946 15.289 0.0220995 15.6975 0.0840195 16.9776C0.144979 18.2542 0.348019 19.1259 0.647539 19.8884C0.955459 20.6772 1.36754 21.3456 2.03546 22.0112C2.70338 22.6767 3.37202 23.0854 4.16402 23.3912C4.92722 23.6861 5.8001 23.8872 7.07738 23.9432C8.35466 23.9991 8.76578 24.012 12.0235 24.0058C15.2813 23.9996 15.6915 23.9852 16.9714 23.9244C18.2513 23.8637 19.1184 23.6592 19.8811 23.3612C20.67 23.0525 21.3389 22.6412 22.0039 21.973C22.669 21.3048 23.0784 20.6352 23.3835 19.8447C23.6791 19.0815 23.88 18.2086 23.9355 16.9323C23.9914 15.6514 24.0046 15.2424 23.9983 11.9842C23.9921 8.72597 23.9775 8.31749 23.9167 7.03781C23.856 5.75813 23.6527 4.88909 23.3535 4.12613C23.0451 3.33725 22.6335 2.66933 21.9658 2.00333C21.2981 1.33733 20.628 0.928129 19.8377 0.623809C19.074 0.328369 18.2016 0.127009 16.9243 0.0718093C15.6471 0.0166094 15.2359 0.00244935 11.977 0.00868935C8.71802 0.0149294 8.31002 0.0288494 7.0301 0.0912493ZM7.17026 21.7844C6.00026 21.7335 5.36498 21.5391 4.94162 21.3764C4.38098 21.1604 3.98162 20.8993 3.5597 20.4814C3.13778 20.0636 2.87858 19.6628 2.6597 19.1033C2.4953 18.68 2.2973 18.0454 2.24258 16.8754C2.18306 15.6108 2.17058 15.2312 2.16362 12.0274C2.15666 8.82365 2.1689 8.44445 2.22434 7.17941C2.27426 6.01037 2.46986 5.37437 2.63234 4.95125C2.84834 4.38989 3.1085 3.99125 3.5273 3.56957C3.9461 3.14789 4.3457 2.88821 4.90562 2.66933C5.3285 2.50421 5.96306 2.30789 7.13258 2.25221C8.3981 2.19221 8.7773 2.18021 11.9806 2.17325C15.1839 2.16629 15.564 2.17829 16.83 2.23397C17.9991 2.28485 18.6353 2.47853 19.0579 2.64197C19.6188 2.85797 20.0179 3.11741 20.4396 3.53693C20.8613 3.95645 21.1212 4.35461 21.3401 4.91573C21.5055 5.33741 21.7018 5.97173 21.757 7.14197C21.8172 8.40749 21.8309 8.78693 21.8367 11.99C21.8424 15.193 21.8311 15.5734 21.7757 16.838C21.7246 18.008 21.5307 18.6435 21.3677 19.0673C21.1517 19.6277 20.8913 20.0273 20.4723 20.4488C20.0532 20.8702 19.6541 21.1299 19.0939 21.3488C18.6715 21.5136 18.0363 21.7104 16.8677 21.7661C15.6022 21.8256 15.223 21.8381 12.0185 21.8451C8.81402 21.852 8.43578 21.8391 7.17026 21.7844ZM16.9529 5.59373C16.9534 5.87855 17.0383 6.15684 17.197 6.39339C17.3556 6.62995 17.5808 6.81414 17.8442 6.92268C18.1075 7.03121 18.3971 7.05922 18.6764 7.00315C18.9556 6.94708 19.212 6.80946 19.413 6.60769C19.614 6.40592 19.7507 6.14906 19.8058 5.86961C19.8608 5.59015 19.8317 5.30065 19.7222 5.03771C19.6127 4.77478 19.4277 4.55022 19.1906 4.39245C18.9534 4.23467 18.6748 4.15076 18.39 4.15133C18.0082 4.15209 17.6423 4.30447 17.3728 4.57496C17.1033 4.84545 16.9523 5.2119 16.9529 5.59373ZM5.8385 12.0192C5.84522 15.4224 8.60906 18.175 12.0115 18.1685C15.414 18.162 18.1685 15.3984 18.162 11.9952C18.1555 8.59205 15.391 5.83877 11.988 5.84549C8.58506 5.85221 5.83202 8.61653 5.8385 12.0192ZM7.99994 12.0149C7.99837 11.2238 8.23145 10.45 8.66968 9.79128C9.10791 9.1326 9.73162 8.61866 10.4619 8.31446C11.1923 8.01026 11.9964 7.92945 12.7726 8.08226C13.5489 8.23507 14.2624 8.61463 14.8229 9.17294C15.3834 9.73125 15.7658 10.4432 15.9217 11.2189C16.0776 11.9945 15.9999 12.7989 15.6986 13.5305C15.3973 14.262 14.8859 14.8877 14.2289 15.3286C13.572 15.7694 12.7991 16.0055 12.0079 16.0071C11.4826 16.0082 10.9622 15.9058 10.4765 15.7058C9.99076 15.5057 9.54918 15.212 9.17699 14.8412C8.8048 14.4705 8.50929 14.0301 8.30733 13.5452C8.10537 13.0602 8.00092 12.5402 7.99994 12.0149Z" fill="white"/>
</svg>
